<svg width="881" height="155" viewBox="0 0 881 155" fill="none" xmlns="http://www.w3.org/2000/svg">
<path d="M7 128.186C24.9159 116.245 61.1625 84.4914 62.8221 53C79.0406 77.4059 99.4081 130.351 117.701 133.5" stroke="#FFDB00" stroke-width="24"/>
<path d="M91.2988 128.186C109.215 116.245 145.461 84.4914 147.121 53C163.339 77.4059 183.707 130.351 202 133.5" stroke="#FFDB00" stroke-width="24"/>
<path d="M132.592 39.056V44.432H175.408V39.056H132.592ZM145.552 56.336V61.136H166.432V56.336H145.552ZM141.28 48.224V78.272H146.992V53.264H165.568V48.224H141.28ZM164.416 48.224V71.984C164.416 72.656 164.128 72.896 163.36 72.896C162.544 72.896 159.712 72.944 157.216 72.8C157.984 74.288 158.752 76.736 158.992 78.32C162.88 78.32 165.616 78.272 167.536 77.408C169.504 76.496 170.032 74.912 170.032 72.08V48.224H164.416ZM147.472 33.2C145.072 42.56 139.696 52.88 131.152 58.496C132.304 59.6 134.128 61.664 134.944 62.96C144.304 56.432 150.064 45.392 153.424 34.544L147.472 33.2ZM145.552 64.256V69.056H166.432V64.256H145.552Z" fill="#FFFDFD"/>
<path d="M134.416 127.264L135.184 132.88C143.824 132.544 156.496 131.968 168.256 131.296L168.448 126.016C156.352 126.544 143.008 127.024 134.416 127.264ZM134.176 112.96V118.336H174.112V112.96H134.176ZM142.72 103.744V109.024H165.232V103.744H142.72ZM145.936 116.464C144.736 120.496 142.432 125.824 140.464 129.328L145.504 131.008C147.664 127.792 150.256 122.8 152.512 118.288L145.936 116.464ZM157.84 121.408C161.968 125.248 166.576 130.72 168.592 134.368L173.92 131.152C171.712 127.504 167.248 122.464 162.928 118.768L157.84 121.408ZM153.952 94.864C158.032 100.432 166.144 106.48 173.344 109.84C174.4 108.112 175.696 106.048 177.088 104.608C169.456 101.872 161.824 96.4 156.736 89.344H150.64C147.088 95.008 139.408 101.872 131.2 105.472C132.4 106.72 133.936 108.88 134.608 110.272C142.576 106.48 150.064 100.336 153.952 94.864Z" fill="#FFFDFD"/>
<path d="M202.24 44.192V48.896H218.8V44.192H202.24ZM193.984 71.984L195.904 77.6C200.464 76.592 206.368 75.296 211.936 74L211.504 69.008C205.072 70.16 198.352 71.36 193.984 71.984ZM198.976 35.408V73.328H204.592V35.408H198.976ZM202.24 35.408V40.352H215.728V52.88H202.24V57.824H221.392V35.408H202.24ZM212.272 54.56L207.472 55.328C209.536 65.936 213.28 74.096 221.008 78.176C221.824 76.688 223.504 74.432 224.752 73.328C217.696 70.208 214 63.104 212.272 54.56ZM219.184 58.16C217.408 60.56 214.288 63.584 211.984 65.456L215.584 68.24C217.984 66.512 221.056 63.824 223.696 61.328L219.184 58.16ZM181.504 35.312V78.368H186.88V40.448H193.504V35.312H181.504ZM191.92 35.312V37.04C191.152 40.112 189.52 46.928 188.128 51.248C190.96 54.512 191.68 57.488 191.68 59.744C191.68 61.088 191.44 62.048 190.816 62.48C190.384 62.768 189.904 62.864 189.376 62.912C188.752 62.912 188.08 62.912 187.168 62.816C187.984 64.256 188.416 66.512 188.464 67.952C189.616 68 190.864 68 191.776 67.856C192.88 67.712 193.84 67.376 194.608 66.8C196.192 65.696 196.912 63.68 196.912 60.464C196.912 57.68 196.288 54.368 193.12 50.624C194.608 46.88 196.336 41.552 197.632 37.376L193.744 35.12L192.928 35.312H191.92Z" fill="#FFFDFD"/>
<path d="M197.632 127.312V132.976H224.992V127.312H197.632ZM199.6 104.128V109.648H223.84V104.128H199.6ZM208.768 89.728V130.048H214.672V89.728H208.768ZM180.4 98.128V103.36H196.144V98.128H180.4ZM187.264 114.544V134.368H192.976V107.728L187.264 114.544ZM187.264 89.296V100.576H192.976V89.296H187.264ZM192.4 109.36L189.232 112.144C191.392 114.256 195.424 118.672 197.296 121.168L200.8 116.512C199.504 115.312 194.08 110.512 192.4 109.36ZM194.032 98.128V99.184C191.488 106.24 185.152 113.296 178.624 116.848C179.488 117.952 180.832 120.784 181.36 122.32C188.512 117.808 195.76 109.408 199.408 100.048L196.192 97.936L195.184 98.128H194.032Z" fill="#FFFDFD"/>
<path d="M261.791 43.108L262.326 56.804C265.108 56.483 268.853 56.055 271.1 55.948C275.915 55.627 285.224 55.306 289.504 55.199C286.294 61.833 281.907 72.319 278.162 80.772C274.31 89.225 270.458 99.069 266.927 104.312C264.894 106.987 263.503 107.95 261.363 107.95C258.795 107.95 256.762 106.131 256.762 102.6C256.762 94.789 265.75 86.336 281.372 86.336C303.414 86.336 322.246 98.534 335.407 110.197L341.613 95.324C330.378 87.62 308.55 74.352 283.619 74.352C260.721 74.352 244.35 87.513 244.35 104.633C244.35 115.547 251.412 121.967 260.721 121.967C268.104 121.967 273.133 119.078 277.413 112.551C281.8 105.81 286.936 93.077 291.216 83.233C296.031 72.105 301.809 58.302 305.447 52.203C306.303 50.812 307.587 49.421 308.978 47.816L300.525 41.075C298.599 41.824 295.817 42.466 293.142 42.68C288.22 43.108 276.878 43.536 270.672 43.536C268.425 43.536 264.68 43.322 261.791 43.108ZM332.197 68.36L318.18 66.755C318.608 70.072 318.501 74.352 318.287 78.525C317.324 91.044 314.114 111.053 287.685 122.395L299.134 131.704C324.707 118.436 330.699 98.748 332.197 68.36ZM394.364 38.721L379.17 38.079C379.384 41.61 379.277 44.392 378.742 48.886C377.351 59.907 371.359 85.908 363.441 101.53L376.067 105.917C377.03 104.098 377.886 102.814 379.063 101.316C385.376 93.184 396.29 88.69 408.595 88.69C419.081 88.69 424.645 94.147 424.645 100.46C424.645 116.296 400.998 119.078 377.458 115.333L381.203 129.136C415.871 132.881 439.09 124.107 439.09 100.139C439.09 86.336 427.534 77.241 410.307 77.241C400.677 77.241 392.331 79.167 383.664 83.875C386.874 73.924 390.084 58.195 391.796 49.635C392.652 46.211 393.294 42.573 394.364 38.721ZM357.021 51.24L357.128 64.508C363.441 65.15 371.145 65.578 379.277 65.578C394.792 65.578 417.476 63.01 431.065 60.763L430.744 47.923C413.196 51.668 392.866 53.273 379.17 53.273C372.536 53.273 363.976 52.417 357.021 51.24ZM516.237 50.705L501.578 50.277C500.508 61.512 498.154 73.817 495.051 83.875C490.557 98.32 486.491 105.168 481.89 105.168C477.824 105.168 473.544 99.925 473.544 89.118C473.544 75.636 485.956 57.125 508.64 57.125C527.151 57.125 537.637 69.109 537.637 85.908C537.637 101.637 526.937 111.374 513.348 114.691C510.459 115.333 507.463 115.868 503.29 116.403L511.422 129.029C538.386 124.856 552.189 108.913 552.189 86.443C552.189 63.01 535.39 44.606 508.961 44.606C481.248 44.606 459.741 65.792 459.741 90.402C459.741 108.485 469.585 121.646 481.569 121.646C493.232 121.646 502.434 108.378 508.854 86.764C512.599 74.138 514.739 61.619 516.237 50.705ZM638.538 46.96L626.019 35.832C624.307 38.4 620.883 41.931 617.78 44.927C610.611 51.989 595.845 63.866 587.499 70.714C576.799 79.595 575.943 85.373 586.536 94.468C596.38 102.707 612.109 116.189 618.529 122.93C621.739 126.14 624.949 129.457 627.945 132.881L640.357 121.325C629.443 110.732 609.113 94.789 601.088 88.048C595.31 83.019 595.203 81.735 600.874 76.92C608.043 70.714 622.167 59.8 629.122 54.236C631.583 52.203 635.114 49.421 638.538 46.96ZM683.05 69.216V81.628H716.22V69.216H683.05ZM683.05 102.814V115.119H716.434V102.814H683.05ZM753.777 40.433V103.242C753.777 104.74 753.242 105.275 751.744 105.275C750.139 105.275 744.896 105.275 740.081 105.061C742.007 108.592 744.361 114.905 744.896 118.757C752.172 118.757 757.522 118.436 761.588 116.082C765.654 113.835 766.724 109.662 766.724 103.67V40.433H753.777ZM676.951 41.717V123.679H689.898V46.532L676.951 41.717ZM708.623 33.157C701.347 37.437 690.219 42.466 680.054 45.569C681.659 48.565 683.692 53.38 684.441 56.376C695.676 53.273 708.623 48.993 719.109 44.071L708.623 33.157ZM721.891 40.433V133.309H734.838V53.166H760.518V40.433H721.891ZM840.982 43.536V105.917H852.966V43.536H840.982ZM861.954 35.19V118.436C861.954 120.148 861.312 120.683 859.6 120.683C857.781 120.683 852.11 120.79 846.546 120.576C848.258 124.214 849.97 129.885 850.505 133.416C858.744 133.416 865.057 132.988 869.016 130.955C872.868 128.815 874.259 125.391 874.259 118.543V35.19H861.954ZM809.096 69.537V133.523H819.796V69.537H809.096ZM825.895 79.167V110.946C825.895 111.909 825.681 112.123 824.932 112.123C824.183 112.123 822.364 112.123 820.117 112.016C821.508 114.798 822.899 119.078 823.113 122.074C827.393 122.074 830.496 121.86 833.064 120.041C835.632 118.329 836.167 115.44 836.167 111.16V79.167H825.895ZM783.416 38.721V74.138C783.416 89.225 782.988 110.197 775.926 124.428C778.601 125.712 783.523 129.457 785.449 131.597C793.474 115.761 794.865 90.723 794.865 74.138V38.721H783.416ZM789.301 38.721V50.17H823.327V58.73H789.301V70.072H835.418V38.721H789.301ZM794.223 79.167V122.395H803.532V89.653H831.138V79.167H794.223Z" fill="white"/>
</svg>
